# xmcd
#
# Track frame offsets: 
#        150
#        13957
#        26414
#        41791
#        53823
#        67923
#        81474
#        95270
#        105622
#        127149
#        138139
#
# Disc length: 2040 seconds
#
# Revision: 0
# Processed by: cddbd v1.5.2PL0 Copyright (c) Steve Scherf et al.
# Submitted via: ExactAudioCopyFreeDBPlugin 1.0
#
DISCID=9207f60b
DTITLE=Mike Cullison - BAC
DYEAR=2004
DGENRE=Country
TTITLE0=Big American Car
TTITLE1=Devil I Can't Talk To
TTITLE2=Beyond The Madness
TTITLE3=Honey Don't
TTITLE4=Baby Doll
TTITLE5=Come Around To Me
TTITLE6=The Hell I'm Raising Now
TTITLE7=Who Turned You Loose
TTITLE8=Self Inflicted Wound
TTITLE9=On The Clock
TTITLE10=Boooonus
EXTD=
EXTT0=
EXTT1=
EXTT2=
EXTT3=
EXTT4=
EXTT5=
EXTT6=
EXTT7=
EXTT8=
EXTT9=
EXTT10=
PLAYORDER=
